# xmcd
#
# Track frame offsets:
#	150
#	16719
#	49011
#
# Disc length: 1137 seconds
#
# Revision: 0
# Processed by: cddbd v1.5.2PL0 Copyright (c) Steve Scherf et al.
# Submitted via: EasyCDDAExtractor 16.0.9.1
#
DISCID=16046f03
DTITLE=Akyra feat. Maria Rubia - Here Comes The Rain Again
DYEAR=2002
DGENRE=Trance
TTITLE0=Here Comes The Rain Again (Radio Cut)
TTITLE1=Here Comes The Rain Again (Club Mix)
TTITLE2=Here Comes The Rain Again (DJ Janis vs. Plus One Rmx)
EXTD=
EXTT0=
EXTT1=
EXTT2=
PLAYORDER=
